<svg xmlns="http://www.w3.org/2000/svg" version="1.1" xmlns:xlink="http://www.w3.org/1999/xlink" xmlns:svgjs="http://svgjs.dev/svgjs" width="192" height="192"><svg version="1.1" viewBox="0.0 0.0 192.0 192.0" fill="none" stroke="none" stroke-linecap="square" stroke-miterlimit="10" xmlns:xlink="http://www.w3.org/1999/xlink" xmlns="http://www.w3.org/2000/svg"><clipPath id="SvgjsClipPath1010"><path d="m0 0l192.0 0l0 192.0l-192.0 0l0 -192.0z" clip-rule="nonzero"></path></clipPath><g clip-path="url(#p.0)"><path fill="#000000" fill-opacity="0.0" d="m0 0l192.0 0l0 192.0l-192.0 0z" fill-rule="evenodd"></path><path fill="#000000" fill-opacity="0.0" d="m15.994751 118.64814l0 0c0 -35.91156 28.555065 -65.02362 63.779526 -65.02362l0 0c16.915382 0 33.137955 6.8506813 45.098938 19.04498c11.960983 12.19429 18.680588 28.733307 18.680588 45.978645l0 0c0 35.911552 -28.555061 65.02361 -63.779526 65.02361l0 0c-35.22446 0 -63.779526 -29.11206 -63.779526 -65.02361z" fill-rule="evenodd"></path><path stroke="#000000" stroke-width="8.0" stroke-linejoin="round" stroke-linecap="butt" d="m15.994751 118.64814l0 0c0 -35.91156 28.555065 -65.02362 63.779526 -65.02362l0 0c16.915382 0 33.137955 6.8506813 45.098938 19.04498c11.960983 12.19429 18.680588 28.733307 18.680588 45.978645l0 0c0 35.911552 -28.555061 65.02361 -63.779526 65.02361l0 0c-35.22446 0 -63.779526 -29.11206 -63.779526 -65.02361z" fill-rule="evenodd"></path><path fill="#000000" fill-opacity="0.0" d="m139.37553 11.610175l23.478012 2.6346064c1.0681152E-4 1.04904175E-5 1.9836426E-4 6.0081482E-5 2.593994E-4 1.373291E-4c6.1035156E-5 7.724762E-5 9.1552734E-5 1.7547607E-4 7.6293945E-5 2.7370453E-4l-2.3625336 20.86573l0 0c-1.3046112 11.524052 -11.705322 19.817696 -23.230652 18.524368l-23.478012 -2.6346054l0 0c-1.9836426E-4 -2.2888184E-5 -3.5095215E-4 -2.0599365E-4 -3.2806396E-4 -4.119873E-4l2.3625336 -20.86573l0 0c1.3046112 -11.524052 11.70533 -19.817694 23.230644 -18.524368z" fill-rule="evenodd"></path><path stroke="#000000" stroke-width="8.0" stroke-linejoin="round" stroke-linecap="butt" d="m139.37553 11.610175l23.478012 2.6346064c1.0681152E-4 1.04904175E-5 1.9836426E-4 6.0081482E-5 2.593994E-4 1.373291E-4c6.1035156E-5 7.724762E-5 9.1552734E-5 1.7547607E-4 7.6293945E-5 2.7370453E-4l-2.3625336 20.86573l0 0c-1.3046112 11.524052 -11.705322 19.817696 -23.230652 18.524368l-23.478012 -2.6346054l0 0c-1.9836426E-4 -2.2888184E-5 -3.5095215E-4 -2.0599365E-4 -3.2806396E-4 -4.119873E-4l2.3625336 -20.86573l0 0c1.3046112 -11.524052 11.70533 -19.817694 23.230644 -18.524368z" fill-rule="evenodd"></path></g></svg><style>@media (prefers-color-scheme: light) { :root { filter: none; } }
@media (prefers-color-scheme: dark) { :root { filter: none; } }
</style></svg>